<svg xmlns="http://www.w3.org/2000/svg" viewBox="0 0 512 512" width="512" height="512">
  <!-- Background gradient - Blue (SnowUI Primary) -->
  <defs>
    <linearGradient id="grad-blue-heizung" x1="0%" y1="0%" x2="100%" y2="100%">
      <stop offset="0%" style="stop-color:#60a5fa;stop-opacity:1" />
      <stop offset="100%" style="stop-color:#2563eb;stop-opacity:1" />
    </linearGradient>
  </defs>

  <!-- Rounded square background -->
  <rect width="512" height="512" rx="115" fill="url(#grad-blue-heizung)"/>

  <!-- Radiator icon -->
  <g fill="white" stroke="white" stroke-width="8" stroke-linejoin="round">
    <!-- Top pipe -->
    <rect x="120" y="140" width="272" height="20" rx="10"/>

    <!-- Bottom pipe -->
    <rect x="120" y="352" width="272" height="20" rx="10"/>

    <!-- Radiator fins (7 vertical bars) -->
    <rect x="140" y="160" width="32" height="192" rx="4"/>
    <rect x="188" y="160" width="32" height="192" rx="4"/>
    <rect x="236" y="160" width="32" height="192" rx="4"/>
    <rect x="284" y="160" width="32" height="192" rx="4"/>
    <rect x="332" y="160" width="32" height="192" rx="4"/>

    <!-- Connection pipes (left and right) -->
    <rect x="380" y="140" width="16" height="232" rx="8"/>
    <rect x="116" y="140" width="16" height="232" rx="8"/>

    <!-- Valve indicator (bottom left) -->
    <circle cx="140" cy="390" r="16" fill="white"/>
    <circle cx="140" cy="390" r="8" fill="#2563eb"/>
  </g>
</svg>
