<svg xmlns="http://www.w3.org/2000/svg" viewBox="0 0 512 512" width="512" height="512">
  <!-- Background gradient - Purple (ML/AI) -->
  <defs>
    <linearGradient id="grad-purple" x1="0%" y1="0%" x2="100%" y2="100%">
      <stop offset="0%" style="stop-color:#a78bfa;stop-opacity:1" />
      <stop offset="100%" style="stop-color:#7c3aed;stop-opacity:1" />
    </linearGradient>
  </defs>

  <!-- Rounded square background -->
  <rect width="512" height="512" rx="115" fill="url(#grad-purple)"/>

  <!-- Neural network nodes -->
  <circle cx="180" cy="180" r="24" fill="white"/>
  <circle cx="180" cy="256" r="24" fill="white"/>
  <circle cx="180" cy="332" r="24" fill="white"/>

  <circle cx="256" cy="140" r="24" fill="white"/>
  <circle cx="256" cy="220" r="24" fill="white"/>
  <circle cx="256" cy="292" r="24" fill="white"/>
  <circle cx="256" cy="372" r="24" fill="white"/>

  <circle cx="332" cy="180" r="24" fill="white"/>
  <circle cx="332" cy="256" r="24" fill="white"/>
  <circle cx="332" cy="332" r="24" fill="white"/>

  <!-- Connections (simplified) -->
  <line x1="204" y1="180" x2="232" y2="140" stroke="white" stroke-width="3" opacity="0.6"/>
  <line x1="204" y1="180" x2="232" y2="220" stroke="white" stroke-width="3" opacity="0.6"/>
  <line x1="204" y1="256" x2="232" y2="220" stroke="white" stroke-width="3" opacity="0.6"/>
  <line x1="204" y1="256" x2="232" y2="292" stroke="white" stroke-width="3" opacity="0.6"/>
  <line x1="204" y1="332" x2="232" y2="292" stroke="white" stroke-width="3" opacity="0.6"/>
  <line x1="204" y1="332" x2="232" y2="372" stroke="white" stroke-width="3" opacity="0.6"/>

  <line x1="280" y1="140" x2="308" y2="180" stroke="white" stroke-width="3" opacity="0.6"/>
  <line x1="280" y1="220" x2="308" y2="180" stroke="white" stroke-width="3" opacity="0.6"/>
  <line x1="280" y1="220" x2="308" y2="256" stroke="white" stroke-width="3" opacity="0.6"/>
  <line x1="280" y1="292" x2="308" y2="256" stroke="white" stroke-width="3" opacity="0.6"/>
  <line x1="280" y1="292" x2="308" y2="332" stroke="white" stroke-width="3" opacity="0.6"/>
  <line x1="280" y1="372" x2="308" y2="332" stroke="white" stroke-width="3" opacity="0.6"/>
</svg>
